PathFileType	4	(X/Y/Z)	C:/Users/Carlo/Dropbox/Carlos/SARAH/CongressoMarcha2025/WorkshopOpenSim/C3D/Caso03/pyCGM2 Static.c3d.trc
DataRate	CameraRate	NumFrames	NumMarkers	Units	OrigDataRate	OrigDataStartFrame	OrigNumFrames
100.000000	100.000000	3	128	mm	100.000000	369	422
Frame#	Time	LASI			RASI			LPSI			RPSI			LTHI			LTHAP			LTHAD			LKNE			LKNM			LTIB			LTIAP			LTIAD			LANK			LMED			LHEE			LTOE			RTHI			RTHAP			RTHAD			RKNE			RKNM			RTIB			RTIAP			RTIAD			RANK			RMED			RHEE			RTOE			PELO			PELA			PELL			PELP			LFEO			LFEA			LFEL			LFEP			LTIO			LTIA			LTIL			LTIP			LFOO			LFOA			LFOL			LFOP			LTOO			LTOA			LTOL			LTOP			RFEO			RFEA			RFEL			RFEP			RTIO			RTIA			RTIL			RTIP			RFOO			RFOA			RFOL			RFOP			RTOO			RTOA			RTOL			RTOP			PELVIS_CGM_2.3O			PELVIS_CGM_2.3A			PELVIS_CGM_2.3L			PELVIS_CGM_2.3P			LFEMUR_CGM_2.3O			LFEMUR_CGM_2.3A			LFEMUR_CGM_2.3L			LFEMUR_CGM_2.3P			LTIBIA_CGM_2.3O			LTIBIA_CGM_2.3A			LTIBIA_CGM_2.3L			LTIBIA_CGM_2.3P			LFOOT_CGM_2.3O			LFOOT_CGM_2.3A			LFOOT_CGM_2.3L			LFOOT_CGM_2.3P			LTOES_CGM_2.3O			LTOES_CGM_2.3A			LTOES_CGM_2.3L			LTOES_CGM_2.3P			RFEMUR_CGM_2.3O			RFEMUR_CGM_2.3A			RFEMUR_CGM_2.3L			RFEMUR_CGM_2.3P			RTIBIA_CGM_2.3O			RTIBIA_CGM_2.3A			RTIBIA_CGM_2.3L			RTIBIA_CGM_2.3P			RFOOT_CGM_2.3O			RFOOT_CGM_2.3A			RFOOT_CGM_2.3L			RFOOT_CGM_2.3P			RTOES_CGM_2.3O			RTOES_CGM_2.3A			RTOES_CGM_2.3L			RTOES_CGM_2.3P			LHipAngles			LKneeAngles			LAbsAnkleAngle			LAnkleAngles			RHipAngles			RKneeAngles			RAnkleAngles			RAbsAnkleAngle			LPelvisAngles			RPelvisAngles			LFootProgressAngles			RFootProgressAngles			LHipAngles_CGM_2.3			LKneeAngles_CGM_2.3			LAnkleAngles_CGM_2.3			RHipAngles_CGM_2.3			RKneeAngles_CGM_2.3			RAnkleAngles_CGM_2.3			LFootProgressAngles_CGM_2.3			RFootProgressAngles_CGM_2.3			LPelvisAngles_CGM_2.3			RPelvisAngles_CGM_2.3			LHJC_CGM_2.3			LKJC_CGM_2.3			RHJC_CGM_2.3			RKJC_CGM_2.3			LAJC_CGM_2.3			RAJC_CGM_2.3			
		X1	Y1	Z1	X2	Y2	Z2	X3	Y3	Z3	X4	Y4	Z4	X5	Y5	Z5	X6	Y6	Z6	X7	Y7	Z7	X8	Y8	Z8	X9	Y9	Z9	X10	Y10	Z10	X11	Y11	Z11	X12	Y12	Z12	X13	Y13	Z13	X14	Y14	Z14	X15	Y15	Z15	X16	Y16	Z16	X17	Y17	Z17	X18	Y18	Z18	X19	Y19	Z19	X20	Y20	Z20	X21	Y21	Z21	X22	Y22	Z22	X23	Y23	Z23	X24	Y24	Z24	X25	Y25	Z25	X26	Y26	Z26	X27	Y27	Z27	X28	Y28	Z28	X29	Y29	Z29	X30	Y30	Z30	X31	Y31	Z31	X32	Y32	Z32	X33	Y33	Z33	X34	Y34	Z34	X35	Y35	Z35	X36	Y36	Z36	X37	Y37	Z37	X38	Y38	Z38	X39	Y39	Z39	X40	Y40	Z40	X41	Y41	Z41	X42	Y42	Z42	X43	Y43	Z43	X44	Y44	Z44	X45	Y45	Z45	X46	Y46	Z46	X47	Y47	Z47	X48	Y48	Z48	X49	Y49	Z49	X50	Y50	Z50	X51	Y51	Z51	X52	Y52	Z52	X53	Y53	Z53	X54	Y54	Z54	X55	Y55	Z55	X56	Y56	Z56	X57	Y57	Z57	X58	Y58	Z58	X59	Y59	Z59	X60	Y60	Z60	X61	Y61	Z61	X62	Y62	Z62	X63	Y63	Z63	X64	Y64	Z64	X65	Y65	Z65	X66	Y66	Z66	X67	Y67	Z67	X68	Y68	Z68	X69	Y69	Z69	X70	Y70	Z70	X71	Y71	Z71	X72	Y72	Z72	X73	Y73	Z73	X74	Y74	Z74	X75	Y75	Z75	X76	Y76	Z76	X77	Y77	Z77	X78	Y78	Z78	X79	Y79	Z79	X80	Y80	Z80	X81	Y81	Z81	X82	Y82	Z82	X83	Y83	Z83	X84	Y84	Z84	X85	Y85	Z85	X86	Y86	Z86	X87	Y87	Z87	X88	Y88	Z88	X89	Y89	Z89	X90	Y90	Z90	X91	Y91	Z91	X92	Y92	Z92	X93	Y93	Z93	X94	Y94	Z94	X95	Y95	Z95	X96	Y96	Z96	X97	Y97	Z97	X98	Y98	Z98	X99	Y99	Z99	X100	Y100	Z100	X101	Y101	Z101	X102	Y102	Z102	X103	Y103	Z103	X104	Y104	Z104	X105	Y105	Z105	X106	Y106	Z106	X107	Y107	Z107	X108	Y108	Z108	X109	Y109	Z109	X110	Y110	Z110	X111	Y111	Z111	X112	Y112	Z112	X113	Y113	Z113	X114	Y114	Z114	X115	Y115	Z115	X116	Y116	Z116	X117	Y117	Z117	X118	Y118	Z118	X119	Y119	Z119	X120	Y120	Z120	X121	Y121	Z121	X122	Y122	Z122	X123	Y123	Z123	X124	Y124	Z124	X125	Y125	Z125	X126	Y126	Z126	X127	Y127	Z127	X128	Y128	Z128	

370	3.69	310.7838745117189	988.204711914063	319.8202514648439	316.2417907714845	978.2765502929692	56.32072067260745	507.824157714844	992.7148437500005	241.707489013672	510.8672180175784	990.260375976563	139.4580535888672	342.6452026367189	651.3419189453127	374.8096313476564	257.803192138672	786.769653320313	319.9785766601564	240.6630096435548	623.0334472656252	312.035858154297	326.538787841797	490.2460021972659	366.3541259765626	306.1230468750001	470.5241699218752	241.7175292968751	401.662780761719	262.3093566894532	367.7442016601564	290.1084289550782	376.6040039062501	297.8124389648439	348.293426513672	208.1435394287111	291.8657531738282	431.0344848632815	87.87255859375003	348.7658996582032	392.3413391113284	93.30950927734378	264.671112060547	466.2861633300784	57.67570495605472	299.4969787597657	277.660369873047	56.07077789306643	339.1922607421876	357.0571594238282	687.9284667968752	4.196022033691408	261.4742126464845	778.9165039062505	71.84512329101565	248.5530395507814	612.701110839844	73.22845458984378	318.8084716796876	475.8120727539065	30.63444900512697	297.0700073242189	469.0306396484377	145.1560516357422	375.7960510253907	303.7072753906251	14.09796142578126	312.5215148925782	317.9642333984376	103.7994003295899	346.0545349121095	185.0472259521485	92.92451477050784	419.9028015136721	78.95356750488284	45.6250686645508	390.6036376953127	93.07245635986331	131.7189636230469	463.2442626953127	50.39564895629886	95.9997482299805	274.3489074707032	47.60798645019533	65.96065521240237	358.4803466796876	896.6921997070317	192.262908935547	196.5278320312501	889.8327636718755	189.1667938232422	355.1252746582032	902.7952270507817	354.2405395507814	351.7438049316407	1058.559326171875	186.0245208740235	315.1182250976564	486.4728088378909	309.6149902343751	-90.85485839843753	536.8316040039065	387.9813537597659	397.1344909667971	513.5698852539065	717.083435058594	359.284149169922	899.051635742188	273.2882080078126	413.0917968750002	90.39377593994143	309.7696838378907	67.5497741699219	4.980888366699221	463.236022949219	562.0357666015627	127.3754272460938	665.711608886719	320.0166625976564	466.6697387695315	309.6226806640626	286.8531799316407	78.41802215576175	349.8130187988282	281.6926269531251	263.2847900390626	332.7651977539064	324.7803039550782	96.16256713867193	530.7540283203127	468.5889282226565	79.96433258056643	311.5676574707032	226.274627685547	77.90259552001956	362.5614013671876	224.5544281005861	139.5248565673829	356.8788146972657	238.916961669922	83.81742095947268	422.8750915527346	286.8532104492189	78.41805267333987	349.8129882812501	304.7664794921876	474.281433105469	86.37248992919925	-103.0754699707032	531.642517089844	-14.79953765869141	201.197235107422	462.991638183594	497.4770812988284	357.6765747070314	894.333129882813	111.2375946044922	406.2134704589846	85.55030822753909	85.85049438476565	51.40966796875003	-6.900939941406254	-19.73368835449219	304.171112060547	58.42800903320315	452.5010986328127	309.8672180175782	454.7359008789065	86.34623718261722	279.1087341308595	72.51110839843753	52.66684341430667	274.4381408691407	256.4128417968751	64.97074890136722	250.4090728759767	59.62775802612308	234.3352355957032	461.173522949219	75.1979904174805	81.61968994140628	218.4205169677736	71.61547851562503	43.01588821411134	216.8636474609376	132.9160461425782	47.11719894409181	208.8539428710939	67.3210144042969	103.572006225586	279.1087341308595	72.51110839843753	52.6668510437012	367.3519897460939	911.3020019531255	193.6970062255861	206.9912109375001	904.671508789063	190.4819641113282	363.8844299316407	917.4016723632817	354.0736083984376	360.8500061035157	1071.578979492188	187.4605407714844	317.1780090332032	481.2500000000002	309.9389953613282	-110.9950561523438	535.722351074219	371.1510009765626	382.2770385742189	509.6146240234377	740.0598144531252	366.9400634765626	912.845336914063	273.9456176757814	413.2040100097659	90.28790283203128	309.7090148925782	53.97644042968753	1.963699340820313	468.538024902344	567.4991455078127	127.9669342041016	679.635437011719	317.1788940429689	481.2500610351565	309.9391479492189	281.8989868164064	76.59629821777347	325.665985107422	278.6461181640626	262.1054992675782	317.3724670410157	320.1416320800782	85.38247680664065	507.1965332031252	463.6129150390627	78.06797790527347	287.313446044922	221.3280029296876	76.10569763183597	338.4509887695314	220.2437133789064	137.9420318603516	335.686492919922	234.0755310058595	79.03442382812503	398.9610900878909	281.8992309570314	76.59626007080081	325.6668090820314	308.040985107422	472.4609985351565	87.09600067138675	-122.2047729492188	536.018493652344	7.474853515625004	225.504364013672	457.5731201171877	521.2117919921877	367.7635498046876	909.758666992188	113.4478073120118	406.1860046386721	85.47640228271487	85.95829772949222	34.54388427734376	-8.449813842773441	-25.62575531005861	298.2942810058595	56.9865417480469	469.284118652344	308.0406494140626	472.4611511230471	87.09588623046878	270.2999877929689	70.62660217285159	76.49400329589847	266.5166625976564	261.8631591796876	82.61790466308597	240.3280487060548	63.98477935791018	265.3876342773439	459.2725219726565	73.40184020996097	106.5760498046876	207.3090057373048	69.70179748535159	66.4664001464844	206.0478973388673	133.447250366211	68.50769805908206	197.3183746337892	67.48786163330081	129.4308776855469	270.299774169922	70.62687683105472	76.49373626708987	-2.983089447021485	-12.2970314025879	8.416135787963871	0.8880985975265507	-11.38916397094727	20.57150268554688	0	0	13.10912036895753	0.007324178703129295	10.78838729858399	13.34931373596192	-5.352232456207277	-12.37320995330811	9.693812370300297	-2.130029439926148	-1.990149140357972	21.94093132019044	0.007457517087459568	6.528641700744632	13.68487358093262	0	0	13.59441852569581	2.205188035964967	1.095040202140809	2.383155345916749	-2.205188035964967	-1.095040202140809	2.383155345916749	-5.382387161254885	-11.88375759124756	-89.51251220703128	-3.874571323394777	-9.034834861755375	-89.1545104980469	-2.713000059127809	-9.580260276794437	8.826209068298343	1.612069845199586	-13.99450016021729	20.84490013122559	-2.668250083923341	10.71819877624512	13.28559970855714	-5.405620098114015	-8.865079879760746	10.23979949951172	-0.9195629954338078	-5.321259975433351	22.21540069580079	-2.033610105514527	6.716650009155277	13.28680038452149	2.615789890289308	-168.0820007324219	-90.4641036987305	1.856969833374024	-170.9559936523438	-90.84120178222659	177.822006225586	1.238649845123291	-177.6309967041016	-177.822006225586	-1.238649845123291	-177.6309967041016	366.9410095214845	912.8460083007817	273.946014404297	317.1780090332032	481.2500000000002	309.9389953613282	367.7630004882814	909.7589721679692	113.4479980468751	308.040985107422	472.4609985351565	87.09600067138675	413.2040100097659	90.28790283203128	309.7090148925782	406.1860046386721	85.47640228271487	85.95829772949222	
371	3.7	310.7190856933595	988.220336914063	319.8469238281251	316.1893920898439	978.2766113281255	56.35063171386722	507.7751770019534	992.7192382812505	241.7312316894532	510.8106994628909	990.249633789063	139.4626464843751	342.6193237304689	651.3632812500002	374.8305969238282	257.7574768066407	786.774047851563	319.9770812988282	240.6785278320314	622.9690551757815	312.0712890625001	326.5832519531251	490.1545410156252	366.3976135253907	306.0559387207032	470.5908203125002	241.7612609863282	401.6731567382815	262.3389587402345	367.7539062500001	290.059539794922	376.628875732422	297.8229064941407	348.3248596191407	208.1128387451173	291.9087829589845	431.0432434082034	87.87231445312503	348.7591857910157	392.3648071289065	93.29966735839847	264.6627197265626	466.2664489746096	57.67406845092776	299.4650878906251	277.624969482422	56.08120727539065	339.158660888672	357.0277709960939	687.916687011719	4.242127418518068	261.4127807617189	778.9221801757817	71.8621520996094	248.5454254150392	612.657653808594	73.25443267822268	318.7578125000001	475.7934570312502	30.60976219177248	297.1006774902345	469.0204162597659	145.177719116211	375.7946777343751	303.7532348632814	14.0740442276001	312.5229492187501	317.970672607422	103.7981643676758	346.0689086914064	185.0449829101563	92.84299468994143	419.8999328613284	78.9229431152344	45.61897659301759	390.6360778808596	93.098014831543	131.7244262695313	463.232849121094	50.34817123413089	95.97298431396487	274.3905334472657	47.63426971435548	65.929313659668	358.4169006347657	896.6979370117192	192.2984466552736	196.4641418457032	889.8469848632817	189.1947174072266	355.0541381835939	902.8105468750005	354.2755737304689	351.6893005371095	1058.565063476563	186.0503082275391	315.2042846679689	486.3729553222659	309.6506652832032	-90.93743896484378	536.5615844726565	387.7461547851565	396.9398498535159	513.5364379882815	717.2659912109377	359.2167968750001	899.0618286132817	273.3236694335939	413.1064147949221	90.38921356201175	309.7600708007814	67.63906860351565	5.019035339355471	463.1410827636721	561.9812011718752	127.2949676513672	665.6191406250002	320.1005249023439	466.5692138671877	309.6561584472657	286.865692138672	78.41967773437503	349.7985229492189	281.7230834960939	263.2894287109376	332.7773742675782	324.7901000976564	96.13442230224615	530.7430419921877	468.6026000976565	79.95429992675784	311.5578002929689	226.2867431640626	77.90815734863284	362.5454711914064	224.5725402832032	139.5313873291016	356.8717041015626	238.9282073974611	83.813102722168	422.860290527344	286.865692138672	78.41967773437503	349.798553466797	304.6866149902345	474.2586975097659	86.34033203125003	-103.1271667480469	531.6617431640627	-15.0462875366211	200.8948364257814	462.9377746582034	497.4188537597659	357.6170043945314	894.333862304688	111.2732238769532	406.2283020019534	85.54534149169925	85.84620666503909	51.37979125976565	-7.01609039306641	-19.51510620117188	304.4016723632814	58.47949981689456	452.5679321289065	309.7920532226564	454.7144165039065	86.31547546386722	279.1207580566407	72.55473327636722	52.65436553955081	274.5216064453126	256.4588012695314	64.95034027099612	250.4035644531251	59.6901779174805	234.3213195800782	461.1845397949221	75.17124176025393	81.61956787109378	218.4328460693361	71.68256378173831	42.99928665161134	216.8997802734376	132.9839172363282	47.09794998168947	208.8604736328126	67.39436340332034	103.554916381836	279.1207885742189	72.55474090576175	52.65432739257815	367.2929992675782	911.2999877929692	193.7259979248048	206.9319763183595	904.674194335938	190.5127258300782	363.8269042968751	917.4115600585942	354.1021728515626	360.7958984375001	1071.57666015625	187.4777984619141	317.1929931640626	481.2439880371096	309.9590148925782	-110.9907226562501	535.641784667969	371.1625976562501	382.2776489257814	509.611755371094	740.081726074219	366.8818664550782	912.848510742188	273.9747619628907	413.2009887695315	90.27749633789065	309.7250061035157	54.0102233886719	1.978378295898438	468.6512451171877	567.5931396484377	127.9693222045899	679.6097412109377	317.1939392089845	481.2440490722659	309.9588317871095	281.8880004882814	76.60469818115237	325.6329956054689	278.6662902832032	262.1151123046876	317.3542480468751	320.065887451172	85.36949157714847	507.1782226562502	463.6160888671877	78.05212402343753	287.3467407226564	221.3119964599611	76.12220001220706	338.394989013672	220.2380828857423	137.9589385986329	335.6354064941407	234.0379486083986	79.0437927246094	398.9100036621096	281.8879699707032	76.60467529296878	325.6329345703126	308.0260009765626	472.4490051269534	87.09570312500003	-122.2315063476563	535.9671630859377	7.507202148437504	225.5190887451173	457.519958496094	521.2156982421877	367.7042541503907	909.7509155273442	113.4763565063477	406.2000122070315	85.47119903564456	85.9194030761719	34.57775878906251	-8.468887329101566	-25.71907043457033	298.2668762207032	56.92348480224612	469.2292480468752	308.0250244140626	472.4482727050784	87.0959396362305	270.3099975585939	70.65679931640628	76.46009826660159	266.5759277343751	261.8933715820314	82.61256408691409	240.3451690673829	63.99458694458011	265.3541259765626	459.284606933594	73.37915802001956	106.5337066650391	207.3190002441407	69.74919891357425	66.43569946289065	206.0743103027345	133.4946594238282	68.48651885986331	197.3307342529298	67.52846527099612	129.4002990722657	270.3104553222657	70.65665435791018	76.46022033691409	-2.978343725204469	-12.25874996185303	8.390290260314945	0.9135885238647465	-11.42118358612061	20.54343223571778	0	0	13.10777568817139	0.007285544183105234	10.78503322601319	13.34779071807862	-5.364142417907717	-12.39903450012208	9.69355392456055	-2.13288426399231	-1.92540729045868	21.95847129821778	0.007646432612091306	6.488451004028324	13.71986198425294	0	0	13.63027286529542	2.208642482757569	1.097721695899964	2.379981994628907	-2.208642482757569	-1.097721695899964	2.379981994628907	-5.373929023742678	-11.88230705261231	-89.51621246337893	-3.872106790542604	-9.038735389709476	-89.17664337158206	-2.707259893417359	-9.578769683837894	8.814889907836918	1.61386001110077	-14.01139926910401	20.83250045776368	-2.678469896316529	10.75329971313477	13.29339981079102	-5.413819789886476	-8.861359596252445	10.23239898681641	-0.9198399186134343	-5.331699848175051	22.21360015869141	-2.037770032882691	6.725059986114506	13.30620002746583	2.610960006713868	-168.1029968261719	-90.45629882812503	1.865449905395509	-170.9589996337891	-90.82550048828128	177.8179931640626	1.238109827041626	-177.6329956054688	-177.8179931640626	-1.238109827041626	-177.6329956054688	366.8819885253907	912.848999023438	273.9750061035157	317.1929931640626	481.2439880371096	309.9590148925782	367.7040100097657	909.7500000000005	113.4769973754883	308.0260009765626	472.4490051269534	87.09570312500003	413.2009887695315	90.27749633789065	309.7250061035157	406.2000122070315	85.47119903564456	85.9194030761719	
372	3.71	310.6588439941407	988.2399902343755	319.8577880859376	316.1494750976564	978.270629882813	56.35359191894534	507.7186584472659	992.7350463867192	241.7539215087892	510.7903137207034	990.2855834960942	139.4955139160157	342.5872192382814	651.3449707031252	374.8283691406251	257.7097778320314	786.776733398438	319.9660949707032	240.6421203613282	622.9575195312502	312.1025390625001	326.4288330078126	490.1883544921877	366.279754638672	306.1034545898439	470.5617980957034	241.7385101318361	401.5556335449221	262.3223876953126	367.6340637207032	290.0155639648439	376.6253967285157	297.7893066406251	348.260223388672	208.1333465576173	291.904022216797	431.0504455566409	87.87628936767581	348.7603454589845	392.3814697265627	93.31269073486331	264.6401367187501	466.2999267578127	57.67939758300784	299.4974365234376	277.629119873047	56.05899429321292	339.153045654297	357.0370178222657	687.9275512695315	4.271095752716066	261.3902282714845	778.9160766601567	71.87441253662112	248.5364990234376	612.6866455078127	73.28180694580081	318.7726440429689	475.790954589844	30.64163780212404	297.104461669922	469.0589294433596	145.2230224609376	375.8562011718751	303.748260498047	14.10941696166993	312.5196838378907	317.9759216308595	103.8413314819337	346.2191162109376	184.9748077392579	92.8046569824219	419.9474182128909	78.96752929687503	45.62468719482423	390.7911376953127	93.0422286987305	131.7630615234376	463.241882324219	50.33327865600589	95.99858856201175	274.3903808593751	47.65162277221681	65.93158721923831	358.374481201172	896.7092895507817	192.3170928955079	196.4225921630861	889.8432006835942	189.2023468017579	354.9994506835939	902.8374633789067	354.2933959960939	351.6325073242189	1058.5751953125	186.0526123046876	314.9531555175782	486.4401855468752	309.5500793457032	-90.99029541015628	536.8508911132815	388.3365173339846	397.3762512207034	513.3613281250002	717.0059814453127	359.1682739257814	899.081176757813	273.3421630859376	413.121520996094	90.39689636230472	309.7578430175782	67.54483032226565	4.818260192871096	463.0842285156252	561.900573730469	127.4619293212891	665.773132324219	319.8612365722657	466.6394042968752	309.5604553222657	286.8742675781251	78.4134216308594	349.7715148925782	281.6961975097657	263.2764587402345	332.6891479492189	324.7537536621095	96.19496154785162	530.7188720703127	468.6193847656252	79.97428131103518	311.5716247558595	226.2925109863282	77.89310455322268	362.5048828125001	224.5664825439454	139.5141296386719	356.8107910156251	238.9190368652345	83.82025909423831	422.8206481933596	286.8742675781251	78.41339874267581	349.7715454101564	304.6865234375001	474.2583312988284	86.36848449707034	-103.1025390625001	531.627136230469	-15.13138580322266	200.7846221923829	462.9532470703127	497.4183349609377	357.5807189941407	894.337280273438	111.2920532226563	406.3232421875002	85.54437255859378	85.87548828125003	51.37158203125003	-7.131408691406254	-19.12630462646485	304.8504028320314	58.54705810546878	452.7259216308596	309.7963867187501	454.7153015136721	86.3437194824219	279.2170715332032	72.57387542724612	52.67071533203128	274.6519470214845	256.4804687500001	64.9419860839844	250.4764251708986	59.7387504577637	234.3360290527345	461.2780456542971	75.15911865234378	81.65663909912112	218.5300903320314	71.71213531494143	43.00875473022462	217.0083770751954	133.0143127441407	47.09917449951173	208.9498748779298	67.43376159667972	103.5638427734376	279.2170715332032	72.57388305664065	52.67072677612308	367.2609863281251	911.2999877929692	193.7389984130861	206.9012298583986	904.650512695313	190.5121459960938	363.7806396484376	917.4057617187505	354.1150817871095	360.7406005859376	1071.575927734375	187.4955139160157	317.0910034179689	481.2420043945315	309.8909912109376	-111.0660400390626	535.6997070312502	371.2276306152345	382.3020935058595	509.5032653808596	740.0015258789065	366.8438110351564	912.8458862304692	273.9883422851564	413.1809997558596	90.29599761962893	309.6979980468751	54.0209655761719	1.939704895019532	468.6618652343752	567.5924072265627	128.0671691894532	679.5665283203127	317.0901184082032	481.2419738769534	309.8900756835939	281.8750000000001	76.58460235595706	325.6250000000001	278.5950622558595	262.0930175781251	317.3236389160157	320.0742492675782	85.38372802734378	507.1640625000002	463.597595214844	78.08325958251956	287.3144836425782	221.300994873047	76.08499908447268	338.394989013672	220.2076721191407	137.9210662841797	335.6278686523439	234.0340728759767	79.0180358886719	398.9079589843752	281.8751220703126	76.58454895019534	325.6248474121095	308.0459899902345	472.4440002441409	87.13670349121097	-122.2143859863282	535.9134521484377	7.524482727050785	225.5210266113282	457.5364990234377	521.254089355469	367.6791381835939	909.753784179688	113.489974975586	406.247009277344	85.47299957275393	85.90820312500003	34.66598510742189	-8.467826843261722	-25.86683654785158	298.1956176757814	56.83616638183597	469.1781311035159	308.0459899902345	472.4433288574221	87.13671875000003	270.3510131835939	70.69110107421878	76.47139739990237	266.6614990234376	261.927703857422	82.650260925293	240.4184875488282	64.01029205322268	265.3699035644532	459.3316040039065	73.36647796630862	106.5115356445313	207.3580017089845	69.79930114746097	66.45819854736331	206.1281738281251	133.5447692871094	68.5178146362305	197.3805084228517	67.57236480712893	129.424301147461	270.3514709472657	70.69109344482425	76.47156524658206	-2.958035945892335	-12.36251163482667	8.424079895019535	0.8379964828491215	-11.3176383972168	20.60030937194825	0	0	13.13092327117921	0.007400087080895904	10.77599716186524	13.37094593048096	-5.36791515350342	-12.40992641448975	9.69427585601807	-2.141743898391725	-1.854311585426331	21.96561431884766	0.007724127732217315	6.424653530120853	13.74063110351563	0	0	13.65266990661622	2.214418649673463	1.101666450500489	2.385092496871949	-2.214418649673463	-1.101666450500489	2.385092496871949	-5.393015861511232	-11.86945724487305	-89.507926940918	-3.864408016204836	-9.045227050781254	-89.18646240234378	-2.699340105056764	-9.601469993591312	8.831580162048343	1.588489890098573	-14.0039987564087	20.85079765319825	-2.676379919052125	10.75039958953858	13.28769969940186	-5.407649993896486	-8.859310150146488	10.23509979248047	-0.9310449361801152	-5.351079463958742	22.20960044860841	-2.046849966049195	6.752240180969242	13.3242998123169	2.618119955062867	-168.0959930419922	-90.4725036621094	1.873239994049073	-170.9689941406251	-90.81109619140628	177.8200073242188	1.243229985237122	-177.6239929199219	-177.8200073242188	-1.243229985237122	-177.6239929199219	366.842987060547	912.8460083007817	273.988006591797	317.0910034179689	481.2420043945315	309.8909912109376	367.6789855957032	909.7529907226567	113.4899978637696	308.0459899902345	472.4440002441409	87.13670349121097	413.1809997558596	90.29599761962893	309.6979980468751	406.247009277344	85.47299957275393	85.90820312500003	
